<?xml version="1.0" encoding="utf-8"?>
<!-- Generator: Adobe Illustrator 15.0.0, SVG Export Plug-In . SVG Version: 6.00 Build 0)  -->
<!DOCTYPE svg PUBLIC "-//W3C//DTD SVG 1.0//EN" "http://www.w3.org/TR/2001/REC-SVG-20010904/DTD/svg10.dtd">
<svg version="1.0" xmlns="http://www.w3.org/2000/svg" xmlns:xlink="http://www.w3.org/1999/xlink" x="0px" y="0px"
	 width="353.547px" height="353.681px" viewBox="0 0 353.547 353.681" enable-background="new 0 0 353.547 353.681"
	 xml:space="preserve">
<g id="Layer_2">
	<g>
		<polyline fill="#475241" points="0,0 0,353.777 353.746,353.777 353.746,0 0,0 		"/>
	</g>
	<g>
		<path fill="#0D0F0C" d="M68.545,312.761c1.404,0.832,3.796,1.768,6.084,1.768c3.276,0,4.836-1.612,4.836-3.744
			c0-2.184-1.3-3.328-4.628-4.576c-4.576-1.664-6.708-4.108-6.708-7.124c0-4.057,3.328-7.385,8.685-7.385
			c2.548,0,4.784,0.677,6.136,1.561l-1.092,3.328c-0.988-0.624-2.808-1.508-5.148-1.508c-2.704,0-4.16,1.56-4.16,3.432
			c0,2.08,1.456,3.017,4.732,4.316c4.316,1.612,6.604,3.796,6.604,7.54c0,4.473-3.484,7.593-9.36,7.593
			c-2.756,0-5.304-0.729-7.072-1.769L68.545,312.761z"/>
		<path fill="#0D0F0C" d="M89.761,300.436c0-3.224-0.104-5.824-0.208-8.216h4.057l0.26,4.316h0.104
			c1.82-3.068,4.836-4.837,8.944-4.837c6.136,0,10.712,5.148,10.712,12.741c0,9.048-5.564,13.521-11.492,13.521
			c-3.328,0-6.24-1.456-7.749-3.952h-0.104v13.677h-4.524V300.436z M94.285,307.145c0,0.676,0.052,1.3,0.208,1.872
			c0.832,3.172,3.588,5.356,6.864,5.356c4.836,0,7.645-3.953,7.645-9.725c0-4.992-2.652-9.309-7.488-9.309
			c-3.12,0-6.084,2.184-6.917,5.616c-0.156,0.572-0.312,1.248-0.312,1.82V307.145z"/>
		<path fill="#0D0F0C" d="M119.349,300.072c0-2.965-0.052-5.513-0.208-7.853h4.004l0.208,4.992h0.156
			c1.144-3.38,3.952-5.513,7.02-5.513c0.468,0,0.832,0.053,1.248,0.104v4.316c-0.468-0.104-0.936-0.104-1.56-0.104
			c-3.224,0-5.512,2.393-6.136,5.824c-0.104,0.624-0.156,1.404-0.156,2.133v13.416h-4.576V300.072z"/>
		<path fill="#0D0F0C" d="M141.656,285.147c0,1.56-1.092,2.808-2.912,2.808c-1.664,0-2.756-1.248-2.756-2.808s1.144-2.86,2.86-2.86
			C140.512,282.287,141.656,283.535,141.656,285.147z M136.56,317.389V292.22h4.576v25.169H136.56z"/>
		<path fill="#0D0F0C" d="M154.24,286.188v6.032h6.552v3.484h-6.552v13.572c0,3.12,0.884,4.888,3.432,4.888
			c1.248,0,1.977-0.104,2.652-0.312l0.208,3.484c-0.884,0.312-2.288,0.624-4.056,0.624c-2.132,0-3.848-0.729-4.94-1.924
			c-1.248-1.404-1.769-3.641-1.769-6.604v-13.729h-3.9v-3.484h3.9v-4.681L154.24,286.188z"/>
		<path fill="#0D0F0C" d="M168.175,305.637c0.104,6.188,4.004,8.736,8.632,8.736c3.276,0,5.304-0.572,6.968-1.301l0.832,3.276
			c-1.611,0.728-4.42,1.612-8.424,1.612c-7.748,0-12.376-5.148-12.376-12.74c0-7.593,4.472-13.521,11.804-13.521
			c8.269,0,10.4,7.177,10.4,11.805c0,0.937-0.052,1.612-0.156,2.133H168.175z M181.592,302.36c0.052-2.86-1.196-7.385-6.344-7.385
			c-4.68,0-6.656,4.212-7.02,7.385H181.592z"/>
		<path fill="#0D0F0C" d="M191.055,312.761c1.404,0.832,3.797,1.768,6.084,1.768c3.276,0,4.837-1.612,4.837-3.744
			c0-2.184-1.3-3.328-4.628-4.576c-4.576-1.664-6.709-4.108-6.709-7.124c0-4.057,3.328-7.385,8.685-7.385
			c2.548,0,4.784,0.677,6.136,1.561l-1.092,3.328c-0.988-0.624-2.808-1.508-5.148-1.508c-2.703,0-4.16,1.56-4.16,3.432
			c0,2.08,1.457,3.017,4.732,4.316c4.316,1.612,6.604,3.796,6.604,7.54c0,4.473-3.484,7.593-9.36,7.593
			c-2.756,0-5.305-0.729-7.072-1.769L191.055,312.761z"/>
		<path fill="#0D0F0C" d="M212.271,280.467h4.576v15.757h0.104c0.728-1.3,1.872-2.496,3.275-3.276
			c1.353-0.779,2.965-1.248,4.681-1.248c3.38,0,8.788,2.08,8.788,10.713v14.977h-4.576v-14.457c0-4.056-1.508-7.436-5.824-7.436
			c-2.964,0-5.252,2.08-6.136,4.523c-0.261,0.677-0.312,1.353-0.312,2.185v15.185h-4.576V280.467z"/>
		<path fill="#0D0F0C" d="M243.678,305.637c0.104,6.188,4.005,8.736,8.633,8.736c3.276,0,5.305-0.572,6.969-1.301l0.832,3.276
			c-1.612,0.728-4.421,1.612-8.425,1.612c-7.748,0-12.376-5.148-12.376-12.74c0-7.593,4.472-13.521,11.804-13.521
			c8.269,0,10.4,7.177,10.4,11.805c0,0.937-0.052,1.612-0.155,2.133H243.678z M257.095,302.36c0.052-2.86-1.196-7.385-6.345-7.385
			c-4.68,0-6.656,4.212-7.02,7.385H257.095z"/>
		<path fill="#0D0F0C" d="M269.73,305.637c0.104,6.188,4.004,8.736,8.632,8.736c3.276,0,5.304-0.572,6.968-1.301l0.832,3.276
			c-1.611,0.728-4.42,1.612-8.424,1.612c-7.748,0-12.377-5.148-12.377-12.74c0-7.593,4.473-13.521,11.805-13.521
			c8.269,0,10.4,7.177,10.4,11.805c0,0.937-0.052,1.612-0.156,2.133H269.73z M283.146,302.36c0.052-2.86-1.196-7.385-6.344-7.385
			c-4.681,0-6.656,4.212-7.021,7.385H283.146z"/>
		<path fill="#0D0F0C" d="M298.746,286.188v6.032h6.552v3.484h-6.552v13.572c0,3.12,0.884,4.888,3.432,4.888
			c1.248,0,1.977-0.104,2.652-0.312l0.208,3.484c-0.884,0.312-2.288,0.624-4.056,0.624c-2.133,0-3.849-0.729-4.94-1.924
			c-1.248-1.404-1.769-3.641-1.769-6.604v-13.729h-3.9v-3.484h3.9v-4.681L298.746,286.188z"/>
	</g>
	<g>
		<path fill="#C7E6B6" d="M65.545,309.761c1.404,0.832,3.796,1.768,6.084,1.768c3.276,0,4.836-1.612,4.836-3.744
			c0-2.184-1.3-3.328-4.628-4.576c-4.576-1.664-6.708-4.108-6.708-7.124c0-4.057,3.328-7.385,8.685-7.385
			c2.548,0,4.784,0.677,6.136,1.561l-1.092,3.328c-0.988-0.624-2.808-1.508-5.148-1.508c-2.704,0-4.16,1.56-4.16,3.432
			c0,2.08,1.456,3.017,4.732,4.316c4.316,1.612,6.604,3.796,6.604,7.54c0,4.473-3.484,7.593-9.36,7.593
			c-2.756,0-5.304-0.729-7.072-1.769L65.545,309.761z"/>
		<path fill="#C7E6B6" d="M86.761,297.436c0-3.224-0.104-5.824-0.208-8.216h4.057l0.26,4.316h0.104
			c1.82-3.068,4.836-4.837,8.944-4.837c6.136,0,10.712,5.148,10.712,12.741c0,9.048-5.564,13.521-11.492,13.521
			c-3.328,0-6.24-1.456-7.749-3.952h-0.104v13.677h-4.524V297.436z M91.285,304.145c0,0.676,0.052,1.3,0.208,1.872
			c0.832,3.172,3.588,5.356,6.864,5.356c4.836,0,7.645-3.953,7.645-9.725c0-4.992-2.652-9.309-7.488-9.309
			c-3.12,0-6.084,2.184-6.917,5.616c-0.156,0.572-0.312,1.248-0.312,1.82V304.145z"/>
		<path fill="#C7E6B6" d="M116.349,297.072c0-2.965-0.052-5.513-0.208-7.853h4.004l0.208,4.992h0.156
			c1.144-3.38,3.952-5.513,7.02-5.513c0.468,0,0.832,0.053,1.248,0.104v4.316c-0.468-0.104-0.936-0.104-1.56-0.104
			c-3.224,0-5.512,2.393-6.136,5.824c-0.104,0.624-0.156,1.404-0.156,2.133v13.416h-4.576V297.072z"/>
		<path fill="#C7E6B6" d="M138.656,282.147c0,1.56-1.092,2.808-2.912,2.808c-1.664,0-2.756-1.248-2.756-2.808s1.144-2.86,2.86-2.86
			C137.512,279.287,138.656,280.535,138.656,282.147z M133.56,314.389V289.22h4.576v25.169H133.56z"/>
		<path fill="#C7E6B6" d="M151.24,283.188v6.032h6.552v3.484h-6.552v13.572c0,3.12,0.884,4.888,3.432,4.888
			c1.248,0,1.977-0.104,2.652-0.312l0.208,3.484c-0.884,0.312-2.288,0.624-4.056,0.624c-2.132,0-3.848-0.729-4.94-1.924
			c-1.248-1.404-1.769-3.641-1.769-6.604v-13.729h-3.9v-3.484h3.9v-4.681L151.24,283.188z"/>
		<path fill="#C7E6B6" d="M165.175,302.637c0.104,6.188,4.004,8.736,8.632,8.736c3.276,0,5.304-0.572,6.968-1.301l0.832,3.276
			c-1.611,0.728-4.42,1.612-8.424,1.612c-7.748,0-12.376-5.148-12.376-12.74c0-7.593,4.472-13.521,11.804-13.521
			c8.269,0,10.4,7.177,10.4,11.805c0,0.937-0.052,1.612-0.156,2.133H165.175z M178.592,299.36c0.052-2.86-1.196-7.385-6.344-7.385
			c-4.68,0-6.656,4.212-7.02,7.385H178.592z"/>
		<path fill="#C7E6B6" d="M188.055,309.761c1.404,0.832,3.797,1.768,6.084,1.768c3.276,0,4.837-1.612,4.837-3.744
			c0-2.184-1.3-3.328-4.628-4.576c-4.576-1.664-6.709-4.108-6.709-7.124c0-4.057,3.328-7.385,8.685-7.385
			c2.548,0,4.784,0.677,6.136,1.561l-1.092,3.328c-0.988-0.624-2.808-1.508-5.148-1.508c-2.703,0-4.16,1.56-4.16,3.432
			c0,2.08,1.457,3.017,4.732,4.316c4.316,1.612,6.604,3.796,6.604,7.54c0,4.473-3.484,7.593-9.36,7.593
			c-2.756,0-5.305-0.729-7.072-1.769L188.055,309.761z"/>
		<path fill="#C7E6B6" d="M209.271,277.467h4.576v15.757h0.104c0.728-1.3,1.872-2.496,3.275-3.276
			c1.353-0.779,2.965-1.248,4.681-1.248c3.38,0,8.788,2.08,8.788,10.713v14.977h-4.576v-14.457c0-4.056-1.508-7.436-5.824-7.436
			c-2.964,0-5.252,2.08-6.136,4.523c-0.261,0.677-0.312,1.353-0.312,2.185v15.185h-4.576V277.467z"/>
		<path fill="#C7E6B6" d="M240.678,302.637c0.104,6.188,4.005,8.736,8.633,8.736c3.276,0,5.305-0.572,6.969-1.301l0.832,3.276
			c-1.612,0.728-4.421,1.612-8.425,1.612c-7.748,0-12.376-5.148-12.376-12.74c0-7.593,4.472-13.521,11.804-13.521
			c8.269,0,10.4,7.177,10.4,11.805c0,0.937-0.052,1.612-0.155,2.133H240.678z M254.095,299.36c0.052-2.86-1.196-7.385-6.345-7.385
			c-4.68,0-6.656,4.212-7.02,7.385H254.095z"/>
		<path fill="#C7E6B6" d="M266.73,302.637c0.104,6.188,4.004,8.736,8.632,8.736c3.276,0,5.304-0.572,6.968-1.301l0.832,3.276
			c-1.611,0.728-4.42,1.612-8.424,1.612c-7.748,0-12.377-5.148-12.377-12.74c0-7.593,4.473-13.521,11.805-13.521
			c8.269,0,10.4,7.177,10.4,11.805c0,0.937-0.052,1.612-0.156,2.133H266.73z M280.146,299.36c0.052-2.86-1.196-7.385-6.344-7.385
			c-4.681,0-6.656,4.212-7.021,7.385H280.146z"/>
		<path fill="#C7E6B6" d="M295.746,283.188v6.032h6.552v3.484h-6.552v13.572c0,3.12,0.884,4.888,3.432,4.888
			c1.248,0,1.977-0.104,2.652-0.312l0.208,3.484c-0.884,0.312-2.288,0.624-4.056,0.624c-2.133,0-3.849-0.729-4.94-1.924
			c-1.248-1.404-1.769-3.641-1.769-6.604v-13.729h-3.9v-3.484h3.9v-4.681L295.746,283.188z"/>
	</g>
</g>
<g id="svg5039" inkscape:version="0.48.2 r9819" sodipodi:docname="kit.svg" xmlns:sodipodi="http://sodipodi.sourceforge.net/DTD/sodipodi-0.dtd" xmlns:inkscape="http://www.inkscape.org/namespaces/inkscape" xmlns:rdf="http://www.w3.org/1999/02/22-rdf-syntax-ns#" xmlns:svg="http://www.w3.org/2000/svg" xmlns:cc="http://creativecommons.org/ns#" xmlns:dc="http://purl.org/dc/elements/1.1/">
	
		<sodipodi:namedview  pagecolor="#ffffff" inkscape:window-maximized="1" inkscape:window-y="-8" inkscape:window-x="-8" inkscape:window-height="716" inkscape:window-width="1366" inkscape:guide-bbox="true" showguides="true" showgrid="false" inkscape:current-layer="layer1" inkscape:document-units="px" inkscape:cx="113.85269" inkscape:zoom="0.73052656" inkscape:cy="664.51276" inkscape:pageshadow="2" inkscape:pageopacity="0.0" borderopacity="1.0" id="base" bordercolor="#666666">
		<sodipodi:guide  orientation="1,0" position="32.217943,1045.1755" id="guide5759"></sodipodi:guide>
		<sodipodi:guide  orientation="1,0" position="88.175423,1040.0885" id="guide5761"></sodipodi:guide>
		<sodipodi:guide  orientation="0,1" position="-14.20133,1025.0393" id="guide5763"></sodipodi:guide>
		<sodipodi:guide  orientation="0,1" position="-12.505649,945.13032" id="guide5765"></sodipodi:guide>
		<sodipodi:guide  orientation="1,0" position="144.19205,1034.9803" id="guide5947"></sodipodi:guide>
		<sodipodi:guide  orientation="1,0" position="200.20965,1036.3" id="guide6039"></sodipodi:guide>
		<sodipodi:guide  orientation="0,1" position="-23.155043,865.18735" id="guide6131"></sodipodi:guide>
		<sodipodi:guide  orientation="0,1" position="-16.435554,785.17122" id="guide6379"></sodipodi:guide>
		<sodipodi:guide  orientation="0,1" position="-14.378317,705.09054" id="guide6651"></sodipodi:guide>
		<sodipodi:guide  orientation="0,1" position="-7.2111908,625.1201" id="guide3399"></sodipodi:guide>
		<sodipodi:guide  orientation="0,1" position="-17.361666,545.06493" id="guide4494"></sodipodi:guide>
		<sodipodi:guide  orientation="0,1" position="-18.046995,465.10989" id="guide4553"></sodipodi:guide>
		<sodipodi:guide  orientation="0,1" position="-12.393484,385.07079" id="guide4991"></sodipodi:guide>
		<sodipodi:guide  orientation="0,1" position="-19.366778,305.08371" id="guide5766"></sodipodi:guide>
	</sodipodi:namedview>
	<g>
		
			<rect id="rect5656-4" x="93.387" y="28.681" inkscape:export-xdpi="90" inkscape:export-filename="2.png" inkscape:export-ydpi="90" fill="#FFFFFF" fill-opacity="0" width="173.678" height="248.111">
		</rect>
		
			<path id="path3766-2-1-0-1-7-7-3-4-8-0" inkscape:export-xdpi="90" inkscape:export-filename="2.png" inkscape:connector-curvature="0" sodipodi:nodetypes="ccc" inkscape:export-ydpi="90" inkscape:transform-center-x="-4.1115787" inkscape:transform-center-y="-30.056272" fill="#FF5700" stroke="#000000" d="
			M221.386,93.642c2.137-14.819-3.621-27.96-12.69-38.227c-5.566,8.288-20.416,31.184-23.76,40.217"/>
		
			<path id="path3774-9-6-1-7-4-9-2-0-0-5" inkscape:export-xdpi="90" inkscape:export-filename="2.png" inkscape:connector-curvature="0" sodipodi:nodetypes="ccc" inkscape:export-ydpi="90" inkscape:transform-center-x="-8.1940929" inkscape:transform-center-y="2.0423297" fill="#332F20" stroke="#000000" stroke-width="0.9997" stroke-linecap="round" stroke-linejoin="round" d="
			M227.9,178.696c3.02-8.978,16.631-5.475,17.062,5.304c1.915,11.088-10.057,17.621-16.944,9.36"/>
		
			<path id="path3432-8-6-8-4-4-3-8-96" inkscape:export-xdpi="90" inkscape:export-filename="2.png" inkscape:connector-curvature="0" sodipodi:nodetypes="ccc" inkscape:export-ydpi="90" inkscape:transform-center-x="-4.3003799" inkscape:transform-center-y="1.4430774" fill="#FF5700" stroke="#000000" d="
			M211.178,171.78c7.979,2.525,27.711,4.546,26.507,15.124c-1.994,11.869-15.523,4.723-23.496,8.261"/>
		
			<linearGradient id="path4705-8-6-4-7-3_1_" gradientUnits="userSpaceOnUse" x1="1395.8032" y1="127.4346" x2="1346.2078" y2="88.468" gradientTransform="matrix(0.9259 -0.2359 -0.2359 -0.9259 -1107.6858 662.4062)">
			<stop  offset="0" style="stop-color:#B9120D"/>
			<stop  offset="0.3601" style="stop-color:#D46E08"/>
			<stop  offset="0.772" style="stop-color:#FDFF00"/>
			<stop  offset="1" style="stop-color:#FFFFC7"/>
		</linearGradient>
		
			<path id="path4705-8-6-4-7-3" inkscape:export-xdpi="90" inkscape:export-filename="2.png" inkscape:connector-curvature="0" sodipodi:nodetypes="cscc" inkscape:export-ydpi="90" inkscape:transform-center-x="8.768853" inkscape:transform-center-y="7.5149394" fill="url(#path4705-8-6-4-7-3_1_)" stroke="#000000" d="
			M172.614,200.984c-15.475,12.419-34.943,14.923-47.335,28.088c-10.328,10.971,3.641,21.828-11.002,38.598
			C152.341,258.433,159.024,230.847,172.614,200.984z"/>
		
			<path id="path3918-1-7-0-1-4-82-6-1-7-4" inkscape:export-xdpi="90" inkscape:export-filename="2.png" inkscape:connector-curvature="0" sodipodi:nodetypes="ccccc" inkscape:export-ydpi="90" fill="#FF5700" stroke="#000000" stroke-width="0.9555" d="
			M222.65,230.196c-3.113,4.964-3.521,0.218-33.237-1.152c-14.26-0.001-30.827,4.654-38.035-10.158
			c-1.554-40.538,6.052-67.032,43.274-60.852C211.582,161.276,232.566,193.92,222.65,230.196z"/>
		
			<path id="path3000-4-45-2-8-0-4-6-2-8-2" inkscape:export-xdpi="90" inkscape:export-filename="2.png" inkscape:connector-curvature="0" sodipodi:nodetypes="ccc" inkscape:export-ydpi="90" inkscape:transform-center-x="2.4389652" inkscape:transform-center-y="7.5568182" fill="#332F20" stroke="#000000" stroke-linecap="round" stroke-linejoin="round" d="
			M169.274,235.081c2.136,13.243,1.737,19.295-17.943,17.42c-3.585-7.807-2.914-8.785-0.032-17.29"/>
		
			<path id="path3000-4-45-2-4-9-7-5-2-2-38-8" inkscape:export-xdpi="90" inkscape:export-filename="2.png" inkscape:connector-curvature="0" sodipodi:nodetypes="ccc" inkscape:export-ydpi="90" inkscape:transform-center-x="-1.5143646" inkscape:transform-center-y="7.2417532" fill="#332F20" stroke="#000000" stroke-linecap="round" stroke-linejoin="round" d="
			M208.762,234.676c-2.137,13.243-1.739,19.295,17.942,17.419c3.584-7.806,2.915-8.785,0.031-17.289"/>
		
			<path id="path3430-3-6-5-9-9-3-8" inkscape:export-xdpi="90" inkscape:export-filename="2.png" inkscape:connector-curvature="0" sodipodi:nodetypes="ccc" inkscape:export-ydpi="90" inkscape:transform-center-x="0.34632447" inkscape:transform-center-y="2.102336" fill="#FF5700" stroke="#000000" d="
			M181.663,228.341c-5.914,5.396-15.429,15.334-24.361,13.502c-7.659-0.665-7.891-17.466-5.898-29.824"/>
		
			<path id="path3432-4-3-1-04-8-7-7" inkscape:export-xdpi="90" inkscape:export-filename="2.png" inkscape:connector-curvature="0" sodipodi:nodetypes="ccc" inkscape:export-ydpi="90" inkscape:transform-center-x="0.48559679" inkscape:transform-center-y="1.8905204" fill="#FF5700" stroke="#000000" d="
			M198.499,228.914c6.109,5.718,14.546,13.747,22.253,10.802c7.975-2.181,4.969-17.465,4.146-26.148"/>
		
			<path id="path3774-9-6-1-1-7-9-2-1-5" inkscape:export-xdpi="90" inkscape:export-filename="2.png" inkscape:connector-curvature="0" sodipodi:nodetypes="ccc" inkscape:export-ydpi="90" inkscape:transform-center-x="10.851558" inkscape:transform-center-y="2.3803112" fill="#332F20" stroke="#000000" stroke-width="0.9997" stroke-linecap="round" stroke-linejoin="round" d="
			M138.987,191.456c-0.896,9.428-14.946,9.116-17.822-1.281c-4.391-10.361,5.781-19.449,14.369-12.972"/>
		
			<path id="path3430-4-4-6-1-3-2-0-8" inkscape:export-xdpi="90" inkscape:export-filename="2.png" inkscape:connector-curvature="0" sodipodi:nodetypes="ccc" inkscape:export-ydpi="90" inkscape:transform-center-x="4.9554828" inkscape:transform-center-y="0.6032685" fill="#FF5700" stroke="#000000" d="
			M159.003,194.182c-6.761-4.283-27.524,4.914-29.319-8.968c-0.785-11.028,27.535-16.712,36.315-17.126"/>
		
			<path id="path2996-22-87-6-2-5-1-7-7-1" inkscape:export-xdpi="90" inkscape:export-filename="2.png" inkscape:connector-curvature="0" sodipodi:nodetypes="cscccccccccc" inkscape:export-ydpi="90" inkscape:transform-center-x="3.7341221" inkscape:transform-center-y="-14.0398" fill="#FF5700" stroke="#000000" d="
			M126.477,144.367c4.169-16.003-6.854-24.612,8.322-48.683c4.047-6.419,14.826-20.939,43.358-22.364
			c42.902-1.264,51.73,26.951,54.098,65.863c8.477,11.707-0.984,25.875-30.605,34.546c-29.457,7.666-38.798,0.324-51.971-2.615
			c-7.405-4.574-16.838-2.037-16.838-2.037l2.523-7.238l-8.067-2.105l3.265-5.084l-7.69-1.849L126.477,144.367z"/>
		
			<path id="path4793-2-1-8-3-2" inkscape:export-xdpi="90" inkscape:export-filename="2.png" inkscape:connector-curvature="0" sodipodi:nodetypes="cccc" inkscape:export-ydpi="90" inkscape:transform-center-x="-0.42207961" inkscape:transform-center-y="-3.9358226" fill="#FFFFCC" d="
			M150.258,169.664c20.12-33.359,31.647-6.991,80.206-32.255c12.083,18.579-12.926,32.045-33.761,36.141
			C174.489,178.466,164.234,173.785,150.258,169.664L150.258,169.664z"/>
		
			<path id="path3836-5-8-6-3-7-9-5-4-5" inkscape:export-xdpi="90" inkscape:export-filename="2.png" inkscape:connector-curvature="0" sodipodi:nodetypes="ccc" inkscape:export-ydpi="90" inkscape:transform-center-x="-10.792131" inkscape:transform-center-y="-7.3758891" fill="#332F20" stroke="#000000" d="
			M232.509,141.54c-1.668,11.744-8.649,18.612-16.813,2.947C218.154,136.715,230.707,136.462,232.509,141.54z"/>
		
			<path id="path3836-5-8-6-1-3-8-7-2-9-8-9-7" inkscape:export-xdpi="90" inkscape:export-filename="2.png" inkscape:connector-curvature="0" sodipodi:nodetypes="ccc" inkscape:export-ydpi="90" fill="#FFFFCC" d="
			M220.35,208c9.751,19.493-59.793,30.721-60.321,0.619C180.277,172.393,204.778,168.146,220.35,208z"/>
		
			<path id="path3766-2-1-0-6-6-4-3-9-3-65-4" inkscape:export-xdpi="90" inkscape:export-filename="2.png" inkscape:connector-curvature="0" sodipodi:nodetypes="ccc" inkscape:export-ydpi="90" inkscape:transform-center-x="20.098206" inkscape:transform-center-y="-23.250057" fill="#FF5700" stroke="#000000" d="
			M128.373,118.569c-11.63-9.429-16.816-30.178-17.129-43.873c9.716,2.305,25.523,12.97,34.111,17.332"/>
		
			<path id="path3796-6-9-9-8-5-4-7-7-4-9-10-4" inkscape:export-xdpi="90" inkscape:export-filename="2.png" inkscape:connector-curvature="0" sodipodi:nodetypes="ccccc" inkscape:export-ydpi="90" inkscape:transform-center-x="-8.7567169" inkscape:transform-center-y="-14.822852" d="
			M213.982,122.667c-0.101-5.139-0.203-10.516,2.942-10.862c2.175-0.246,3.737,2.564,4.594,10.351
			c0.424,5.247-0.261,11.226-3.031,11.566C215.782,134.242,214.524,126.835,213.982,122.667L213.982,122.667z"/>
		
			<path id="path3796-1-9-9-71-1-7-4-6-4-9-4" inkscape:export-xdpi="90" inkscape:export-filename="2.png" inkscape:connector-curvature="0" sodipodi:nodetypes="ccccc" inkscape:export-ydpi="90" inkscape:transform-center-x="0.03812958" inkscape:transform-center-y="-12.548666" d="
			M186.927,130.682c-1.405-4.943-2.873-10.119,0.08-11.255c2.04-0.791,4.268,1.529,7.079,8.841
			c1.746,4.966,2.604,10.921,0.013,11.955C191.617,141.417,188.514,134.575,186.927,130.682L186.927,130.682z"/>
	</g>
	
		<sodipodi:namedview  pagecolor="#ffffff" inkscape:window-maximized="1" inkscape:window-y="-8" inkscape:window-x="-8" inkscape:window-height="716" inkscape:window-width="1366" inkscape:guide-bbox="true" showguides="true" showgrid="false" inkscape:current-layer="layer1" inkscape:document-units="px" inkscape:cx="113.85269" inkscape:zoom="0.73052656" inkscape:cy="664.51276" inkscape:pageshadow="2" inkscape:pageopacity="0.0" borderopacity="1.0" id="base" bordercolor="#666666">
		<sodipodi:guide  orientation="1,0" position="32.217943,1045.1755" id="guide5759"></sodipodi:guide>
		<sodipodi:guide  orientation="1,0" position="88.175423,1040.0885" id="guide5761"></sodipodi:guide>
		<sodipodi:guide  orientation="0,1" position="-14.20133,1025.0393" id="guide5763"></sodipodi:guide>
		<sodipodi:guide  orientation="0,1" position="-12.505649,945.13032" id="guide5765"></sodipodi:guide>
		<sodipodi:guide  orientation="1,0" position="144.19205,1034.9803" id="guide5947"></sodipodi:guide>
		<sodipodi:guide  orientation="1,0" position="200.20965,1036.3" id="guide6039"></sodipodi:guide>
		<sodipodi:guide  orientation="0,1" position="-23.155043,865.18735" id="guide6131"></sodipodi:guide>
		<sodipodi:guide  orientation="0,1" position="-16.435554,785.17122" id="guide6379"></sodipodi:guide>
		<sodipodi:guide  orientation="0,1" position="-14.378317,705.09054" id="guide6651"></sodipodi:guide>
		<sodipodi:guide  orientation="0,1" position="-7.2111908,625.1201" id="guide3399"></sodipodi:guide>
		<sodipodi:guide  orientation="0,1" position="-17.361666,545.06493" id="guide4494"></sodipodi:guide>
		<sodipodi:guide  orientation="0,1" position="-18.046995,465.10989" id="guide4553"></sodipodi:guide>
		<sodipodi:guide  orientation="0,1" position="-12.393484,385.07079" id="guide4991"></sodipodi:guide>
		<sodipodi:guide  orientation="0,1" position="-19.366778,305.08371" id="guide5766"></sodipodi:guide>
	</sodipodi:namedview>
</g>
</svg>
